<mxfile>
    <diagram id="0YLx1hEpJfdPU7Atq4Bm" name="ページ1">
        <mxGraphModel dx="1042" dy="401" grid="1" gridSize="10" guides="1" tooltips="1" connect="1" arrows="1" fold="1" page="1" pageScale="1" pageWidth="827" pageHeight="1169" math="0" shadow="0">
            <root>
                <mxCell id="0"/>
                <mxCell id="1" parent="0"/>
                <mxCell id="2" value="" style="group" vertex="1" connectable="0" parent="1">
                    <mxGeometry x="70" y="120" width="120" height="109" as="geometry"/>
                </mxCell>
                <mxCell id="3" value="小口" style="whiteSpace=wrap;html=1;shape=mxgraph.basic.document" vertex="1" parent="2">
                    <mxGeometry width="100" height="100" as="geometry"/>
                </mxCell>
                <mxCell id="4" value="" style="pointerEvents=1;shadow=0;dashed=0;html=1;strokeColor=none;fillColor=#505050;labelPosition=center;verticalLabelPosition=bottom;verticalAlign=top;outlineConnect=0;align=center;shape=mxgraph.office.services.excel_services;" vertex="1" parent="2">
                    <mxGeometry x="60" y="60" width="60" height="49" as="geometry"/>
                </mxCell>
                <mxCell id="5" value="" style="group;fontStyle=0" vertex="1" connectable="0" parent="1">
                    <mxGeometry x="70" y="270" width="120" height="109" as="geometry"/>
                </mxCell>
                <mxCell id="6" value="勤務表" style="whiteSpace=wrap;html=1;shape=mxgraph.basic.document" vertex="1" parent="5">
                    <mxGeometry width="100" height="100" as="geometry"/>
                </mxCell>
                <mxCell id="7" value="" style="pointerEvents=1;shadow=0;dashed=0;html=1;strokeColor=none;fillColor=#505050;labelPosition=center;verticalLabelPosition=bottom;verticalAlign=top;outlineConnect=0;align=center;shape=mxgraph.office.services.excel_services;" vertex="1" parent="5">
                    <mxGeometry x="60" y="60" width="60" height="49" as="geometry"/>
                </mxCell>
                <mxCell id="19" style="edgeStyle=orthogonalEdgeStyle;rounded=0;orthogonalLoop=1;jettySize=auto;html=1;entryX=-0.02;entryY=0.32;entryDx=0;entryDy=0;entryPerimeter=0;" edge="1" parent="1" source="8" target="13">
                    <mxGeometry relative="1" as="geometry"/>
                </mxCell>
                <mxCell id="8" value="" style="verticalLabelPosition=bottom;html=1;verticalAlign=top;align=center;strokeColor=none;fillColor=#00BEF2;shape=mxgraph.azure.powershell_file;pointerEvents=1;" vertex="1" parent="1">
                    <mxGeometry x="320" y="120" width="80" height="84.5" as="geometry"/>
                </mxCell>
                <mxCell id="9" value="&lt;b&gt;&lt;font style=&quot;font-size: 24px&quot;&gt;志村.ps1&lt;/font&gt;&lt;/b&gt;" style="text;html=1;strokeColor=none;fillColor=none;align=center;verticalAlign=middle;whiteSpace=wrap;rounded=0;" vertex="1" parent="1">
                    <mxGeometry x="290" y="204.5" width="160" height="40" as="geometry"/>
                </mxCell>
                <mxCell id="10" style="edgeStyle=orthogonalEdgeStyle;rounded=0;orthogonalLoop=1;jettySize=auto;html=1;entryX=0.025;entryY=0.592;entryDx=0;entryDy=0;entryPerimeter=0;" edge="1" parent="1" source="3" target="8">
                    <mxGeometry relative="1" as="geometry"/>
                </mxCell>
                <mxCell id="11" style="edgeStyle=orthogonalEdgeStyle;rounded=0;orthogonalLoop=1;jettySize=auto;html=1;entryX=-0.012;entryY=0.781;entryDx=0;entryDy=0;entryPerimeter=0;" edge="1" parent="1" source="6" target="8">
                    <mxGeometry relative="1" as="geometry"/>
                </mxCell>
                <mxCell id="12" value="" style="group" vertex="1" connectable="0" parent="1">
                    <mxGeometry x="480" y="130" width="120" height="109" as="geometry"/>
                </mxCell>
                <mxCell id="13" value="NEW小口" style="whiteSpace=wrap;html=1;shape=mxgraph.basic.document" vertex="1" parent="12">
                    <mxGeometry width="100" height="100" as="geometry"/>
                </mxCell>
                <mxCell id="14" value="" style="pointerEvents=1;shadow=0;dashed=0;html=1;strokeColor=none;fillColor=#505050;labelPosition=center;verticalLabelPosition=bottom;verticalAlign=top;outlineConnect=0;align=center;shape=mxgraph.office.services.excel_services;" vertex="1" parent="12">
                    <mxGeometry x="60" y="60" width="60" height="49" as="geometry"/>
                </mxCell>
                <mxCell id="18" value="" style="rhombus;whiteSpace=wrap;html=1;fillColor=#FFFF33;" vertex="1" parent="1">
                    <mxGeometry x="450" y="229" width="20" height="30" as="geometry"/>
                </mxCell>
                <mxCell id="20" value="" style="rhombus;whiteSpace=wrap;html=1;fillColor=#FFFF33;" vertex="1" parent="1">
                    <mxGeometry x="590" y="110" width="20" height="30" as="geometry"/>
                </mxCell>
                <mxCell id="24" value="" style="shape=flexArrow;endArrow=classic;html=1;width=65;endSize=12.67;endWidth=83;" edge="1" parent="1">
                    <mxGeometry width="50" height="50" relative="1" as="geometry">
                        <mxPoint x="369.5" y="400" as="sourcePoint"/>
                        <mxPoint x="369.5" y="490" as="targetPoint"/>
                        <Array as="points">
                            <mxPoint x="370" y="440"/>
                            <mxPoint x="369.5" y="470"/>
                        </Array>
                    </mxGeometry>
                </mxCell>
            </root>
        </mxGraphModel>
    </diagram>
</mxfile>